# xmcd
#
# Track frame offsets:
#	150
#	12659
#	23888
#	43279
#	54814
#	65071
#	82779
#	100003
#	113238
#	124505
#	135572
#	150934
#	162389
#	179363
#
# Disc length: 2600 seconds
#
# Revision: 0
# Processed by: cddbd v1.5.1PL0 Copyright (c) Steve Scherf et al.
# Submitted via: dBpowerAMP V4.0
#
DISCID=ac0a260e
DTITLE=Various Artist - Blues Harp Heroes
DYEAR=1900
DGENRE=
TTITLE0=Sonny Boy Williamson ll - She's crazy
TTITLE1=Sonny Boy Willamson ll - City of New Orleans
TTITLE2=Chris Holzhaus - Red Neck Blues
TTITLE3=Loudmouth Johnson and Johnny Winter - Gangster of love
TTITLE4=Johnny Winter - You're gonna miss me
TTITLE5=Paul Christensen - Don't look back
TTITLE6=Juke Boy Bonner - Rock of Gibraltar 
TTITLE7=The Hogs - The whip
TTITLE8=Sonny Look - Sonny Look's ride
TTITLE9=Jay Jay Johnson - Fannie Mae
TTITLE10=Pierre Blanchard - Black cat bone
TTITLE11=Jerry "Boogie" McCain - Stay out of automobiles
TTITLE12=Joey Long - Four o'clock a.m. pt 2
TTITLE13=Lightnin' Hopkins - Pine gum boogie
EXTD=2000, made in EC
EXTT0=
EXTT1=
EXTT2=
EXTT3=
EXTT4=
EXTT5=
EXTT6=
EXTT7=
EXTT8=
EXTT9=
EXTT10=
EXTT11=
EXTT12=
EXTT13=
PLAYORDER=
